<svg id="编组" xmlns="http://www.w3.org/2000/svg" xmlns:xlink="http://www.w3.org/1999/xlink" width="119.404" height="112.6" viewBox="0 0 119.404 112.6">
  <defs>
    <linearGradient id="linear-gradient" x1="0.5" y1="1" x2="0.5" y2="0.026" gradientUnits="objectBoundingBox">
      <stop offset="0" stop-color="#fff"/>
      <stop offset="1" stop-color="#e4e4e4"/>
    </linearGradient>
    <linearGradient id="linear-gradient-2" x1="0.766" y1="0.649" x2="1" gradientUnits="objectBoundingBox">
      <stop offset="0" stop-color="#fff"/>
      <stop offset="1" stop-color="#d8d8d8"/>
    </linearGradient>
    <linearGradient id="linear-gradient-3" x1="0.5" y1="0.983" x2="0.5" gradientUnits="objectBoundingBox">
      <stop offset="0.35" stop-color="#fff"/>
      <stop offset="1" stop-color="#d8d8d8"/>
    </linearGradient>
    <linearGradient id="linear-gradient-4" x1="0.5" y1="0.983" x2="0.5" gradientUnits="objectBoundingBox">
      <stop offset="0.439" stop-color="#fff"/>
      <stop offset="1" stop-color="#d8d8d8"/>
    </linearGradient>
    <linearGradient id="linear-gradient-5" x1="0.5" y1="0.983" x2="0.5" xlink:href="#linear-gradient-2"/>
    <linearGradient id="linear-gradient-6" x1="0.5" y1="0.983" x2="0.5" gradientUnits="objectBoundingBox">
      <stop offset="0.358" stop-color="#fff"/>
      <stop offset="1" stop-color="#d8d8d8"/>
    </linearGradient>
    <linearGradient id="linear-gradient-7" x1="0.126" y1="0.119" x2="0.897" y2="0.865" gradientUnits="objectBoundingBox">
      <stop offset="0" stop-color="#6cedb6"/>
      <stop offset="1" stop-color="#3bd08f"/>
    </linearGradient>
    <filter id="Oval_5" x="24.2" y="34.8" width="77.8" height="77.8" filterUnits="userSpaceOnUse">
      <feOffset dy="3" input="SourceAlpha"/>
      <feGaussianBlur stdDeviation="2" result="blur"/>
      <feFlood flood-opacity="0.051"/>
      <feComposite operator="in" in2="blur"/>
      <feComposite in="SourceGraphic"/>
    </filter>
  </defs>
  <g id="分组">
    <ellipse id="Oval_7" data-name="Oval 7" cx="21.7" cy="3.85" rx="21.7" ry="3.85" transform="translate(41 103)" fill="#eee"/>
    <g id="Group_11" data-name="Group 11" opacity="0.7">
      <path id="Path_102_Copy" data-name="Path 102 Copy" d="M12.432,9.414s3.46.094,3.46-2.551S13,4.062,13,4.062,12.309.906,9.762.207s-6.1.349-6.1,3.573a3.069,3.069,0,0,0-3.534,3.8C.759,9.7,3.658,9.637,3.658,9.637Z" transform="matrix(1, -0.017, 0.017, 1, 0, 0.277)" fill="url(#linear-gradient)"/>
      <g id="Group_3" data-name="Group 3" transform="translate(9)" opacity="0.573">
        <rect id="Rectangle_9" data-name="Rectangle 9" width="23.109" height="46.375" rx="0.627" transform="translate(0 22.081)" fill="url(#linear-gradient-2)"/>
        <rect id="Rectangle_9_Copy" data-name="Rectangle 9 Copy" width="23.109" height="65.175" transform="translate(23.109 8.92)" fill="url(#linear-gradient-3)"/>
        <rect id="Rectangle_11" data-name="Rectangle 11" width="23.072" height="5.64" transform="translate(23.109)" fill="#d8d8d8"/>
        <rect id="Rectangle_12" data-name="Rectangle 12" width="21.788" height="58.908" rx="1.254" transform="translate(50.179 15.187)" fill="url(#linear-gradient-4)"/>
        <rect id="Rectangle_12_Copy_2" data-name="Rectangle 12 Copy 2" width="23.109" height="58.908" rx="1.882" transform="translate(84.921 21.7)" fill="url(#linear-gradient-5)"/>
        <path id="Rectangle_12_Copy" data-name="Rectangle 12 Copy" d="M0,1.254A1.254,1.254,0,0,1,1.8.123L13.812,5.871A1.254,1.254,0,0,1,14.526,7V67.832H0Z" transform="translate(69.3 6.773)" fill="url(#linear-gradient-6)"/>
      </g>
    </g>
    <g id="Group_16" data-name="Group 16" transform="translate(30.2 37.8)">
      <g id="Group_9" data-name="Group 9">
        <g transform="matrix(1, 0, 0, 1, -30.2, -37.8)" filter="url(#Oval_5)">
          <circle id="Oval_5-2" data-name="Oval 5" cx="32.9" cy="32.9" r="32.9" transform="translate(30.2 37.8)" fill="url(#linear-gradient-7)"/>
        </g>
        <path id="Path_3" data-name="Path 3" d="M0,9.279l8.452,9.279L25.04,0" transform="translate(20 25)" fill="none" stroke="#fff" stroke-linecap="round" stroke-linejoin="round" stroke-miterlimit="10" stroke-width="5.6"/>
      </g>
    </g>
  </g>
  <circle id="椭圆形" cx="3.85" cy="3.85" r="3.85" transform="translate(109.9 66.5)" fill="none" stroke="#5be3a9" stroke-miterlimit="10" stroke-width="2.8" opacity="0.5"/>
  <path id="路径_5" data-name="路径 5" d="M0,0H2.088a3.5,3.5,0,0,1,3.5,3.5h0A3.5,3.5,0,0,0,9.088,7H11.2" transform="matrix(0.839, 0.545, -0.545, 0.839, 16.599, 71.491)" fill="none" stroke="#fda83e" stroke-linecap="round" stroke-linejoin="round" stroke-miterlimit="10" stroke-width="2.8"/>
  <path id="路径_5-2" data-name="路径 5" d="M0,0H-2.088a3.5,3.5,0,0,0-3.5,3.5h0A3.5,3.5,0,0,1-9.088,7H-11.2" transform="translate(116.848 42.431) rotate(-8)" fill="none" stroke="#3d8fff" stroke-linecap="round" stroke-linejoin="round" stroke-miterlimit="10" stroke-width="2.8"/>
  <path id="形状结合" d="M3.033,7.233V5.367H1.166a1.167,1.167,0,0,1,0-2.334H3.033V1.166a1.167,1.167,0,0,1,2.334,0V3.033H7.233a1.167,1.167,0,0,1,0,2.334H5.367V7.233a1.167,1.167,0,0,1-2.334,0Z" transform="translate(25.9 38.267)" fill="#65e9b1" opacity="0.3"/>
</svg>
